<?xml version="1.0" encoding="UTF-8"?>
<!--
  Phosphor SVG sprite for kabynyt.com. Vendored from
  /Users/greg/git/web-icons/assets/regular/ (Regular weight only,
  MIT licensed). Reference each icon from HTML with:
    <svg viewBox="0 0 256 256" aria-hidden="true">
      <use href="/assets/icons.svg#house"/>
    </svg>
  Strokes use currentColor; the parent element's color: drives the
  icon hue. To add an icon, copy its <path>/<line>/<polyline>/etc
  children into a new <symbol id="name" viewBox="0 0 256 256"> block.
-->
<svg xmlns="http://www.w3.org/2000/svg" width="0" height="0" aria-hidden="true">
    <symbol id="house" viewBox="0 0 256 256">
        <path d="M104,216V152h48v64h64V120a8,8,0,0,0-2.34-5.66l-80-80a8,8,0,0,0-11.32,0l-80,80A8,8,0,0,0,40,120v96Z" fill="none" stroke="currentColor" stroke-linecap="round" stroke-linejoin="round" stroke-width="16"/>
    </symbol>
    <symbol id="barcode" viewBox="0 0 256 256">
        <polyline points="184 48 224 48 224 88" fill="none" stroke="currentColor" stroke-linecap="round" stroke-linejoin="round" stroke-width="16"/>
        <polyline points="72 208 32 208 32 168" fill="none" stroke="currentColor" stroke-linecap="round" stroke-linejoin="round" stroke-width="16"/>
        <polyline points="224 168 224 208 184 208" fill="none" stroke="currentColor" stroke-linecap="round" stroke-linejoin="round" stroke-width="16"/>
        <polyline points="32 88 32 48 72 48" fill="none" stroke="currentColor" stroke-linecap="round" stroke-linejoin="round" stroke-width="16"/>
        <line x1="80" y1="88" x2="80" y2="168" fill="none" stroke="currentColor" stroke-linecap="round" stroke-linejoin="round" stroke-width="16"/>
        <line x1="176" y1="88" x2="176" y2="168" fill="none" stroke="currentColor" stroke-linecap="round" stroke-linejoin="round" stroke-width="16"/>
        <line x1="144" y1="88" x2="144" y2="168" fill="none" stroke="currentColor" stroke-linecap="round" stroke-linejoin="round" stroke-width="16"/>
        <line x1="112" y1="88" x2="112" y2="168" fill="none" stroke="currentColor" stroke-linecap="round" stroke-linejoin="round" stroke-width="16"/>
    </symbol>
    <symbol id="magic-wand" viewBox="0 0 256 256">
        <line x1="216" y1="128" x2="216" y2="176" fill="none" stroke="currentColor" stroke-linecap="round" stroke-linejoin="round" stroke-width="16"/>
        <line x1="192" y1="152" x2="240" y2="152" fill="none" stroke="currentColor" stroke-linecap="round" stroke-linejoin="round" stroke-width="16"/>
        <line x1="80" y1="40" x2="80" y2="88" fill="none" stroke="currentColor" stroke-linecap="round" stroke-linejoin="round" stroke-width="16"/>
        <line x1="56" y1="64" x2="104" y2="64" fill="none" stroke="currentColor" stroke-linecap="round" stroke-linejoin="round" stroke-width="16"/>
        <line x1="168" y1="184" x2="168" y2="216" fill="none" stroke="currentColor" stroke-linecap="round" stroke-linejoin="round" stroke-width="16"/>
        <line x1="152" y1="200" x2="184" y2="200" fill="none" stroke="currentColor" stroke-linecap="round" stroke-linejoin="round" stroke-width="16"/>
        <line x1="144" y1="80" x2="176" y2="112" fill="none" stroke="currentColor" stroke-linecap="round" stroke-linejoin="round" stroke-width="16"/>
        <rect x="21.49" y="105.37" width="213.02" height="45.25" rx="8" transform="translate(-53.02 128) rotate(-45)" fill="none" stroke="currentColor" stroke-linecap="round" stroke-linejoin="round" stroke-width="16"/>
    </symbol>
    <symbol id="magnifying-glass" viewBox="0 0 256 256">
        <circle cx="112" cy="112" r="80" fill="none" stroke="currentColor" stroke-linecap="round" stroke-linejoin="round" stroke-width="16"/>
        <line x1="168.57" y1="168.57" x2="224" y2="224" fill="none" stroke="currentColor" stroke-linecap="round" stroke-linejoin="round" stroke-width="16"/>
    </symbol>
    <symbol id="pencil-simple" viewBox="0 0 256 256">
        <path d="M92.69,216H48a8,8,0,0,1-8-8V163.31a8,8,0,0,1,2.34-5.65L165.66,34.34a8,8,0,0,1,11.31,0L221.66,79a8,8,0,0,1,0,11.31L98.34,213.66A8,8,0,0,1,92.69,216Z" fill="none" stroke="currentColor" stroke-linecap="round" stroke-linejoin="round" stroke-width="16"/>
        <line x1="136" y1="64" x2="192" y2="120" fill="none" stroke="currentColor" stroke-linecap="round" stroke-linejoin="round" stroke-width="16"/>
    </symbol>
    <symbol id="file-csv" viewBox="0 0 256 256">
        <path d="M80,200.87A22.12,22.12,0,0,1,64,208c-13.26,0-24-12.54-24-28s10.74-28,24-28a22.12,22.12,0,0,1,16,7.13" fill="none" stroke="currentColor" stroke-linecap="round" stroke-linejoin="round" stroke-width="16"/>
        <path d="M139.9,153.6s-29.43-7.78-31.8,11,38.43,10.12,35.78,30.72c-2.47,19.16-31.78,11-31.78,11" fill="none" stroke="currentColor" stroke-linecap="round" stroke-linejoin="round" stroke-width="16"/>
        <path d="M48,112V40a8,8,0,0,1,8-8h96l56,56v24" fill="none" stroke="currentColor" stroke-linecap="round" stroke-linejoin="round" stroke-width="16"/>
        <polyline points="152 32 152 88 208 88" fill="none" stroke="currentColor" stroke-linecap="round" stroke-linejoin="round" stroke-width="16"/>
        <polyline points="168 152 188 208 208 152" fill="none" stroke="currentColor" stroke-linecap="round" stroke-linejoin="round" stroke-width="16"/>
    </symbol>
    <symbol id="cloud-arrow-up" viewBox="0 0 256 256">
        <path d="M112,208H72A56,56,0,1,1,85.92,97.74" fill="none" stroke="currentColor" stroke-linecap="round" stroke-linejoin="round" stroke-width="16"/>
        <polyline points="120 160 152 128 184 160" fill="none" stroke="currentColor" stroke-linecap="round" stroke-linejoin="round" stroke-width="16"/>
        <line x1="152" y1="208" x2="152" y2="128" fill="none" stroke="currentColor" stroke-linecap="round" stroke-linejoin="round" stroke-width="16"/>
        <path d="M80,128a80,80,0,1,1,112,73.34" fill="none" stroke="currentColor" stroke-linecap="round" stroke-linejoin="round" stroke-width="16"/>
    </symbol>
    <symbol id="shield-check" viewBox="0 0 256 256">
        <path d="M216,112V56a8,8,0,0,0-8-8H48a8,8,0,0,0-8,8v56c0,96,88,120,88,120S216,208,216,112Z" fill="none" stroke="currentColor" stroke-linecap="round" stroke-linejoin="round" stroke-width="16"/>
        <polyline points="88 136 112 160 168 104" fill="none" stroke="currentColor" stroke-linecap="round" stroke-linejoin="round" stroke-width="16"/>
    </symbol>
    <symbol id="upload-simple" viewBox="0 0 256 256">
        <line x1="128" y1="144" x2="128" y2="32" fill="none" stroke="currentColor" stroke-linecap="round" stroke-linejoin="round" stroke-width="16"/>
        <polyline points="216 144 216 208 40 208 40 144" fill="none" stroke="currentColor" stroke-linecap="round" stroke-linejoin="round" stroke-width="16"/>
        <polyline points="88 72 128 32 168 72" fill="none" stroke="currentColor" stroke-linecap="round" stroke-linejoin="round" stroke-width="16"/>
    </symbol>
    <symbol id="wifi-high" viewBox="0 0 256 256">
        <circle cx="128" cy="204" r="12" fill="currentColor"/>
        <path d="M232,93.19a164,164,0,0,0-208,0" fill="none" stroke="currentColor" stroke-linecap="round" stroke-linejoin="round" stroke-width="16"/>
        <path d="M200,129a116,116,0,0,0-144,0" fill="none" stroke="currentColor" stroke-linecap="round" stroke-linejoin="round" stroke-width="16"/>
        <path d="M168,165a68,68,0,0,0-80,0" fill="none" stroke="currentColor" stroke-linecap="round" stroke-linejoin="round" stroke-width="16"/>
    </symbol>
    <symbol id="floppy-disk" viewBox="0 0 256 256">
        <path d="M216,83.31V208a8,8,0,0,1-8,8H48a8,8,0,0,1-8-8V48a8,8,0,0,1,8-8H172.69a8,8,0,0,1,5.65,2.34l35.32,35.32A8,8,0,0,1,216,83.31Z" fill="none" stroke="currentColor" stroke-linecap="round" stroke-linejoin="round" stroke-width="16"/>
        <path d="M80,216V152a8,8,0,0,1,8-8h80a8,8,0,0,1,8,8v64" fill="none" stroke="currentColor" stroke-linecap="round" stroke-linejoin="round" stroke-width="16"/>
        <line x1="152" y1="72" x2="96" y2="72" fill="none" stroke="currentColor" stroke-linecap="round" stroke-linejoin="round" stroke-width="16"/>
    </symbol>
    <symbol id="currency-circle-dollar" viewBox="0 0 256 256">
        <line x1="128" y1="72" x2="128" y2="88" fill="none" stroke="currentColor" stroke-linecap="round" stroke-linejoin="round" stroke-width="16"/>
        <line x1="128" y1="168" x2="128" y2="184" fill="none" stroke="currentColor" stroke-linecap="round" stroke-linejoin="round" stroke-width="16"/>
        <circle cx="128" cy="128" r="96" fill="none" stroke="currentColor" stroke-linecap="round" stroke-linejoin="round" stroke-width="16"/>
        <path d="M104,168h36a20,20,0,0,0,0-40H116a20,20,0,0,1,0-40h36" fill="none" stroke="currentColor" stroke-linecap="round" stroke-linejoin="round" stroke-width="16"/>
    </symbol>
    <symbol id="trash-simple" viewBox="0 0 256 256">
        <line x1="216" y1="56" x2="40" y2="56" fill="none" stroke="currentColor" stroke-linecap="round" stroke-linejoin="round" stroke-width="16"/>
        <line x1="88" y1="24" x2="168" y2="24" fill="none" stroke="currentColor" stroke-linecap="round" stroke-linejoin="round" stroke-width="16"/>
        <path d="M200,56V208a8,8,0,0,1-8,8H64a8,8,0,0,1-8-8V56" fill="none" stroke="currentColor" stroke-linecap="round" stroke-linejoin="round" stroke-width="16"/>
    </symbol>
    <symbol id="envelope" viewBox="0 0 256 256">
        <polyline points="224 56 128 144 32 56" fill="none" stroke="currentColor" stroke-linecap="round" stroke-linejoin="round" stroke-width="16"/>
        <path d="M32,56H224a0,0,0,0,1,0,0V192a8,8,0,0,1-8,8H40a8,8,0,0,1-8-8V56A0,0,0,0,1,32,56Z" fill="none" stroke="currentColor" stroke-linecap="round" stroke-linejoin="round" stroke-width="16"/>
        <line x1="110.55" y1="128" x2="34.47" y2="197.74" fill="none" stroke="currentColor" stroke-linecap="round" stroke-linejoin="round" stroke-width="16"/>
        <line x1="221.53" y1="197.74" x2="145.45" y2="128" fill="none" stroke="currentColor" stroke-linecap="round" stroke-linejoin="round" stroke-width="16"/>
    </symbol>
    <symbol id="compass" viewBox="0 0 256 256">
        <circle cx="128" cy="128" r="96" fill="none" stroke="currentColor" stroke-linecap="round" stroke-linejoin="round" stroke-width="16"/>
        <polygon points="176 80 112 112 80 176 144 144 176 80" fill="none" stroke="currentColor" stroke-linecap="round" stroke-linejoin="round" stroke-width="16"/>
    </symbol>
</svg>
